<svg width="154" height="154" viewBox="0 0 154 154" fill="none" xmlns="http://www.w3.org/2000/svg">
<path d="M82.7257 42.5319C87.7574 38.7627 94.6977 40.2704 98.1678 45.9242L150.394 86.2548C155.946 91.5318 152.476 99.2586 147.27 103.028L80.1231 151.462C75.0913 155.232 69.3656 152.405 64.6809 148.07L10.5465 109.247C4.47374 103.405 8.46441 96.2433 13.6696 92.4741L82.7257 42.5319Z" fill="#FEEB70"/>
<path d="M75.7854 2.57917C80.8172 -1.19005 86.1959 1.4484 91.2276 5.97146L143.453 46.3021C148.832 51.2021 145.535 59.3059 140.33 63.0751L73.1828 111.51C68.1511 115.279 62.9459 112.64 57.7406 108.117L3.60628 69.2943C-1.94596 64.0174 1.52419 56.2905 6.72942 52.5213L75.7854 2.57917Z" fill="#FFD60A"/>
</svg>
